HIERARCHY
ROOT Hips
{
  OFFSET 0.0 0.0 0.0
  CHANNELS 6 Xposition Yposition Zposition Zrotation Yrotation Xrotation
  JOINT LHipJoint
  {
    OFFSET 0.0 0.0 0.0
    CHANNELS 3 Zrotation Yrotation Xrotation
    JOINT LeftUpLeg
    {
      OFFSET 1.363059998 -1.794630051 0.839290023
      CHANNELS 3 Zrotation Yrotation Xrotation
      JOINT LeftLeg
      {
        OFFSET 2.448110104 -6.726130009 0.0
        CHANNELS 3 Zrotation Yrotation Xrotation
        JOINT LeftFoot
        {
          OFFSET 2.562200069 -7.039589882 0.0
          CHANNELS 3 Zrotation Yrotation Xrotation
          JOINT LeftToeBase
          {
            OFFSET 0.157639995 -0.433109999 2.322550058
            CHANNELS 3 Zrotation Yrotation Xrotation
            End Site
            {
              OFFSET 0.0 -0.0 1.189659953
            }
          }
        }
      }
    }
  }
  JOINT RHipJoint
  {
    OFFSET 0.0 0.0 0.0
    CHANNELS 3 Zrotation Yrotation Xrotation
    JOINT RightUpLeg
    {
      OFFSET -1.305520058 -1.794630051 0.839290023
      CHANNELS 3 Zrotation Yrotation Xrotation
      JOINT RightLeg
      {
        OFFSET -2.54253006 -6.985549927 0.0
        CHANNELS 3 Zrotation Yrotation Xrotation
        JOINT RightFoot
        {
          OFFSET -2.568259954 -7.056230068 0.0
          CHANNELS 3 Zrotation Yrotation Xrotation
          JOINT RightToeBase
          {
            OFFSET -0.164729998 -0.452589989 2.363149881
            CHANNELS 3 Zrotation Yrotation Xrotation
            End Site
            {
              OFFSET -0.0 -0.0 1.21081996
            }
          }
        }
      }
    }
  }
  JOINT LowerBack
  {
    OFFSET 0.0 0.0 0.0
    CHANNELS 3 Zrotation Yrotation Xrotation
    JOINT Spine
    {
      OFFSET 0.028270001 2.035589933 -0.193379998
      CHANNELS 3 Zrotation Yrotation Xrotation
      JOINT Spine1
      {
        OFFSET 0.05672 2.04885006 -0.042750001
        CHANNELS 3 Zrotation Yrotation Xrotation
        JOINT Neck
        {
          OFFSET 0.0 0.0 0.0
          CHANNELS 3 Zrotation Yrotation Xrotation
          JOINT Neck1
          {
            OFFSET -0.054170001 1.74624002 0.172020003
            CHANNELS 3 Zrotation Yrotation Xrotation
            JOINT Head
            {
              OFFSET 0.10407 1.761360049 -0.123970002
              CHANNELS 3 Zrotation Yrotation Xrotation
              End Site
              {
                OFFSET 0.0372 1.770439982 -0.062410001
              }
            }
          }
        }
        JOINT LeftShoulder
        {
          OFFSET 0.0 0.0 0.0
          CHANNELS 3 Zrotation Yrotation Xrotation
          JOINT LeftArm
          {
            OFFSET 3.362410069 1.200889945 -0.311210006
            CHANNELS 3 Zrotation Yrotation Xrotation
            JOINT LeftForeArm
            {
              OFFSET 4.982999802 -0.0 -0.0
              CHANNELS 3 Zrotation Yrotation Xrotation
              JOINT LeftHand
              {
                OFFSET 3.483560085 -0.0 -0.0
                CHANNELS 3 Zrotation Yrotation Xrotation
                JOINT LeftFingerBase
                {
                  OFFSET 0.0 0.0 0.0
                  CHANNELS 3 Zrotation Yrotation Xrotation
                  JOINT LeftHandIndex1
                  {
                    OFFSET 0.715260029 -0.0 -0.0
                    CHANNELS 3 Zrotation Yrotation Xrotation
                    End Site
                    {
                      OFFSET 0.576659977 -0.0 -0.0
                    }
                  }
                }
                JOINT LThumb
                {
                  OFFSET 0.0 0.0 0.0
                  CHANNELS 3 Zrotation Yrotation Xrotation
                  End Site
                  {
                    OFFSET 0.585470021 -0.0 0.585470021
                  }
                }
              }
            }
          }
        }
        JOINT RightShoulder
        {
          OFFSET 0.0 0.0 0.0
          CHANNELS 3 Zrotation Yrotation Xrotation
          JOINT RightArm
          {
            OFFSET -3.136600018 1.374050021 -0.404650003
            CHANNELS 3 Zrotation Yrotation Xrotation
            JOINT RightForeArm
            {
              OFFSET -5.241899967 -0.0 -0.0
              CHANNELS 3 Zrotation Yrotation Xrotation
              JOINT RightHand
              {
                OFFSET -3.444169998 -0.0 -0.0
                CHANNELS 3 Zrotation Yrotation Xrotation
                JOINT RightFingerBase
                {
                  OFFSET 0.0 0.0 0.0
                  CHANNELS 3 Zrotation Yrotation Xrotation
                  JOINT RightHandIndex1
                  {
                    OFFSET -0.622529984 -0.0 -0.0
                    CHANNELS 3 Zrotation Yrotation Xrotation
                    End Site
                    {
                      OFFSET -0.501900017 -0.0 -0.0
                    }
                  }
                }
                JOINT RThumb
                {
                  OFFSET 0.0 0.0 0.0
                  CHANNELS 3 Zrotation Yrotation Xrotation
                  End Site
                  {
                    OFFSET -0.509559989 -0.0 0.509559989
                  }
                }
              }
            }
          }
        }
      }
    }
  }
}
MOTION
Frames: 4
Frame Time: 0.0083333
12.413355827 27.057699203 48.854644775 -172.878494263 7.857993603 179.312026978 0.0 -0.0 0.0 -13.598601341 -2.320701122 -25.263301849 2.929999352 10.580799103 30.878793716 1.915499926 -8.397001266 -24.82519722 0.205499992 2.919200182 8.053801537 0.0 -0.0 0.0 26.977396011 9.170998573 -22.460800171 -1.805099726 -8.447798729 24.082595825 -1.639100313 5.161801338 -23.089506149 -0.198799983 -2.871200085 7.920199394 1.062999725 2.875399828 19.262397766 4.042199135 7.12899971 13.707695961 2.664200544 4.767400742 3.716700077 -2.804500103 -7.022699833 -22.578802109 0.100800037 -9.265299797 1.961000443 -0.459899962 -4.881899834 4.188398838 0.0 -0.0 0.0 92.315696716 -37.687911987 -128.755599976 17.278800964 -27.223800659 -4.214100361 0.0 -0.0 25.624399185 7.999500751 1.04369998 0.14670001 -7.125 0.0 0.0 -14.669494629 30.829603195 5.231900692 0.0 -0.0 0.0 -80.731903076 38.003406525 -114.752082825 -18.744298935 29.099700928 -4.905898571 0.0 -0.0 14.514001846 -25.915197372 -21.0727005 9.910000801 7.125 -0.0 0.0 2.844299555 -53.147895813 -0.57049948 
12.407155991 27.04240036 48.933246613 -172.823501587 7.86899519 179.257003784 0.0 -0.0 0.0 -13.556001663 -2.299800396 -25.126306534 2.943699837 10.603401184 30.953605652 2.13869977 -6.034900665 -26.423200607 0.004200001 0.419200122 1.151800156 0.0 -0.0 0.0 27.05729866 9.170502663 -22.268098831 -1.806499839 -8.450901031 24.092100143 -1.662500024 5.049699783 -23.273096085 -0.255200028 -3.250399828 8.976599693 1.071999788 2.894199848 19.285697937 4.08979845 7.171299934 13.741496086 2.703900576 4.793599606 3.736200094 -2.82889986 -7.021100998 -22.647306442 0.170000002 -9.284899712 1.737900019 -0.433900058 -4.898300648 4.131700039 0.0 -0.0 0.0 92.161392212 -38.135192871 -128.805282593 17.935997009 -28.075201035 -4.519099712 0.0 -0.0 25.015600204 7.757199764 1.195300102 0.162800014 -7.125 0.0 0.0 -14.880999565 30.97120285 5.25979805 0.0 -0.0 0.0 -80.407699585 38.254005432 -114.436676025 -19.326299667 29.822095871 -5.192100048 0.0 -0.0 13.952999115 -25.82280159 -21.143201828 9.90100193 7.125 -0.0 0.0 2.958800077 -53.206001282 -0.59769994 
12.406656265 27.029699326 48.977344513 -172.644897461 7.595991135 179.280014038 0.0 -0.0 0.0 -13.425701141 -2.483400822 -25.043701172 2.953799963 10.61989975 31.008304596 2.132900238 -5.851000309 -26.405700684 0.0026 0.331100017 0.909799755 0.0 -0.0 0.0 27.198997498 9.02630043 -22.21680069 -1.808399796 -8.454999924 24.104801178 -1.681399822 4.84840107 -23.43629837 -0.133700043 -2.356500149 6.492100716 1.368800282 2.764100313 19.232200623 4.147999763 7.053301811 13.738502502 2.627599955 4.756401062 3.786100149 -2.870699883 -6.989400387 -22.825101852 0.198799998 -9.23419857 1.767899513 -0.421000004 -4.874100685 4.169000149 0.0 -0.0 0.0 91.952102661 -38.665092468 -128.675201416 18.697502136 -29.041107178 -4.883100986 0.0 -0.0 24.132900238 7.479900837 1.501600266 0.197100043 -7.125 0.0 0.0 -15.14539814 31.26199913 5.249599934 0.0 -0.0 0.0 -80.134208679 38.568202972 -114.263114929 -19.905897141 30.528795242 -5.48349762 0.0 -0.0 13.652500153 -26.108701706 -21.194200516 10.047401428 7.125 -0.0 0.0 2.676300526 -53.315906525 -0.547700346 
12.389356613 27.021600723 49.03874588 -172.476303101 7.287986279 179.519989014 0.0 -0.0 0.0 -13.30710125 -2.687499762 -25.226602554 2.96140027 10.632301331 31.049503326 2.070499897 -5.979801178 -25.985301971 0.012599999 0.723800004 1.989300132 0.0 -0.0 0.0 27.247699738 9.152999878 -22.277103424 -1.804900289 -8.447401047 24.08140564 -1.702599645 4.604499817 -23.621898651 -0.25970003 -3.278600216 9.055400848 1.692700028 2.632100344 18.871898651 4.179201126 6.888699055 13.687997818 2.540300846 4.6831007 3.944401026 -2.879899979 -6.841899395 -22.989593506 0.149199978 -9.03539753 1.776699901 -0.421000063 -4.782900333 4.191300869 0.0 -0.0 0.0 91.848297119 -39.20249176 -128.801712036 19.471902847 -30.000801086 -5.264700413 0.0 -0.0 23.528402328 7.003499508 1.691999674 0.207799941 -7.125 0.0 0.0 -15.547199249 31.433002472 5.331899166 0.0 -0.0 0.0 -79.796218872 38.947101593 -114.006515503 -20.540193558 31.287593842 -5.809298515 0.0 -0.0 13.282099724 -26.233198166 -21.372896194 10.181097031 7.125 -0.0 0.0 2.594599724 -53.532295227 -0.544700146 
